<svg data-v-423bf9ae="" xmlns="http://www.w3.org/2000/svg" viewBox="0 0 376 112" class="iconLeft"><!----><!----><!----><g data-v-423bf9ae="" id="ef928169-c482-4908-9150-6b2543d3c8c4" fill="black" transform="matrix(5.555555457440915,0,0,5.555555457440915,117.50853523214468,11.22222125677414)"><path d="M5.01 5.11L7.07 9.67L2.94 9.67L5.00 5.11ZM5.19 3.39C5.14 3.28 5.10 3.19 5.03 3.19L4.98 3.19C4.90 3.19 4.87 3.28 4.80 3.39L0.24 13.01C0.18 13.13 0.24 13.23 0.36 13.23L1.18 13.23C1.33 13.23 1.39 13.17 1.47 13.01L2.56 10.63L7.45 10.63L8.54 13.01C8.62 13.17 8.68 13.23 8.82 13.23L9.63 13.23C9.77 13.23 9.83 13.13 9.77 13.01ZM11.65 6.13L10.61 6.13C10.44 6.13 10.39 6.19 10.39 6.36L10.39 6.78C10.39 6.96 10.44 7 10.61 7L11.65 7L11.65 13.01C11.65 13.17 11.69 13.23 11.86 13.23L12.47 13.23C12.64 13.23 12.68 13.17 12.68 13.01L12.68 7L15.22 7C15.37 7 15.43 6.96 15.43 6.78L15.43 6.36C15.43 6.19 15.39 6.13 15.22 6.13L12.68 6.13L12.68 5.77C12.68 4.13 13.17 3.53 14.29 3.53C14.66 3.53 14.85 3.57 15.13 3.68C15.32 3.77 15.36 3.75 15.41 3.57L15.50 3.12C15.54 2.97 15.53 2.93 15.40 2.84C14.91 2.59 14.36 2.58 14.18 2.58C12.33 2.58 11.65 3.74 11.65 5.70ZM20.87 6.99C21.04 6.99 21.08 6.94 21.13 6.78L21.21 6.15C21.24 6.01 21.21 5.95 21.01 5.95C19.03 5.95 18.38 7.14 18.10 7.73L17.93 6.33C17.86 6.16 17.81 6.10 17.70 6.10L17.35 6.10C17.19 6.10 17.14 6.16 17.14 6.33L17.14 13.01C17.14 13.17 17.19 13.23 17.35 13.23L17.98 13.23C18.13 13.23 18.19 13.17 18.19 13.01L18.19 9.56C18.19 8.26 19.05 6.99 20.87 6.99ZM22.02 9.67C22.02 11.72 23.66 13.38 25.70 13.38C27.75 13.38 29.39 11.72 29.39 9.67C29.39 7.63 27.75 5.95 25.70 5.95C23.66 5.95 22.02 7.63 22.02 9.67ZM25.70 12.45C24.25 12.45 23.07 11.21 23.07 9.67C23.07 8.13 24.25 6.90 25.70 6.90C27.17 6.90 28.35 8.13 28.35 9.67C28.35 11.21 27.17 12.45 25.70 12.45ZM37.86 13.23C38.02 13.23 38.07 13.17 38.07 13.01L38.07 12.49C38.07 12.32 38.02 12.26 37.86 12.26L32.51 12.26L32.51 8.76L37.60 8.76C37.77 8.76 37.83 8.71 37.83 8.54L37.83 8.02C37.83 7.85 37.77 7.80 37.60 7.80L32.51 7.80L32.51 4.40L37.86 4.40C38.01 4.40 38.07 4.34 38.07 4.17L38.07 3.65C38.07 3.49 38.01 3.43 37.86 3.43L31.63 3.43C31.46 3.43 31.40 3.49 31.40 3.65L31.40 13.01C31.40 13.17 31.46 13.23 31.63 13.23ZM45.43 7.59C45.26 7.20 44.49 5.95 42.84 5.95C40.88 5.95 39.61 7.62 39.61 9.66C39.61 11.69 40.88 13.38 42.84 13.38C44.49 13.38 45.25 12.24 45.60 11.70L45.71 13.01C45.77 13.17 45.82 13.23 45.95 13.23L46.27 13.23C46.42 13.23 46.48 13.17 46.48 13.01L46.48 3.12C46.48 2.95 46.42 2.90 46.27 2.90L45.64 2.90C45.49 2.90 45.43 2.95 45.43 3.12ZM43.05 12.45C41.58 12.45 40.66 11.21 40.66 9.66C40.66 8.22 41.58 6.90 43.05 6.90C44.51 6.90 45.44 8.27 45.44 9.67C45.44 11.06 44.51 12.45 43.05 12.45Z"></path></g><!----><g data-v-423bf9ae="" id="0ba0e66f-7321-419f-bc49-044c39437172" transform="matrix(1.1111111111111112,0,0,1.1111111111111112,-5.975553512573242,0.44444444444444287)" stroke="none" fill="black"><path d="M94.42 37.32l-2.638 7.907-12.775 12.38 1.418 14.804-6.692 7.095.406 4.878-4.056 2.638-1.22 5.266-8.924 7.303-7.503.409-7.914-20.286-1.621-10.946 2.836-4.061-6.282-12.782-.609-5.475-6.896-3.042-14.402 2.84L5.58 35.494l.412-13.18S16.735 7.913 16.938 7.3c.208-.603 4.665-5.473 4.665-5.473l5.478.401L40.878 0l2.023 1.415-.203 4.469 10.143 3.235 4.665-2.422 14.809 4.861-.406 3.648 8.318 17.042 6.489 5.072h7.704zM91.782 68.152l1.626 5.484-4.26 11.755-3.449.411-.203-6.296-.203-5.266z"></path></g><!----></svg>